<svg width="512" height="512" viewBox="0 0 512 512" xmlns="http://www.w3.org/2000/svg">
  <!-- Background circle -->
  <circle cx="256" cy="256" r="240" fill="#006494" stroke="#004466" stroke-width="8"/>
  
  <!-- Cloud background -->
  <circle cx="180" cy="200" r="40" fill="#ffffff" opacity="0.9"/>
  <circle cx="220" cy="180" r="50" fill="#ffffff" opacity="0.9"/>
  <circle cx="280" cy="190" r="45" fill="#ffffff" opacity="0.9"/>
  <circle cx="320" cy="210" r="35" fill="#ffffff" opacity="0.9"/>
  
  <!-- Airplane body -->
  <ellipse cx="256" cy="280" rx="80" ry="12" fill="#ffffff"/>
  
  <!-- Wings -->
  <ellipse cx="256" cy="280" rx="120" ry="8" fill="#ffffff" opacity="0.8"/>
  
  <!-- Propeller -->
  <circle cx="256" cy="280" r="6" fill="#ffffff"/>
  <line x1="246" y1="280" x2="266" y2="280" stroke="#006494" stroke-width="2"/>
  <line x1="256" y1="270" x2="256" y2="290" stroke="#006494" stroke-width="2"/>
  
  <!-- Farm field pattern -->
  <g opacity="0.3">
    <rect x="100" y="350" width="80" height="8" fill="#4CAF50"/>
    <rect x="200" y="360" width="100" height="8" fill="#8BC34A"/>
    <rect x="320" y="350" width="90" height="8" fill="#4CAF50"/>
    <rect x="120" y="370" width="70" height="8" fill="#8BC34A"/>
    <rect x="220" y="380" width="80" height="8" fill="#4CAF50"/>
    <rect x="320" y="370" width="70" height="8" fill="#8BC34A"/>
  </g>
  
  <!-- Text -->
  <text x="256" y="420" text-anchor="middle" font-family="Arial, sans-serif" font-size="24" font-weight="bold" fill="#ffffff">CloudFarm</text>
  <text x="256" y="450" text-anchor="middle" font-family="Arial, sans-serif" font-size="18" fill="#ffffff" opacity="0.9">AIR</text>
</svg> 